<?xml version="1.0" encoding="UTF-8"?><svg id="a" xmlns="http://www.w3.org/2000/svg" viewBox="0 0 1317.25 542.58"><defs><style>.b{fill:#fff;}</style></defs><path class="b" d="m317.42,181.07c7-16.15,10.93-34.07,10.93-52.96C328.35,57.36,273.68,0,206.24,0s-122.1,57.36-122.1,128.11c0,16.81,3.12,32.86,8.73,47.57C40.27,183.66,0,228.24,0,282.05c0,59.46,49.15,107.65,109.79,107.65,10.68,0,21.01-1.51,30.77-4.3l-51.44-56.06c-1.02-1.11-.89-3.34.3-4.98l1.81-2.5c1.18-1.64,2.96-2.07,3.98-.96l55.89,60.92c18.28-7.29,34.09-19.28,45.91-34.43v-153.62c0-10.7,8.27-19.38,18.47-19.38,9.07,0,16.42,7.71,16.42,17.22v159.37c3.49,3.8,7.26,7.35,11.3,10.62l87.72-83.62c1.97-1.88,5.33-.55,7.51,2.98,1.18,1.91,1.27,4.28.2,5.3l-86.11,82.08c16.73,10.76,36.79,17.05,58.39,17.05,58.37,0,105.69-45.79,105.69-102.27s-43.84-98.8-99.17-102.06Z"/><path class="b" d="m231.89,372.38v-21.38c-8.23-8.98-14.87-19.35-19.46-30.73-3.8,9.81-9.03,18.93-15.43,27.12v84.46l-45.91-50.04c-3.43,1.37-6.95,2.56-10.54,3.58l56.45,61.52v78.43c0,9.51,7.35,17.22,16.42,17.22h2.05c9.07,0,16.42-7.71,16.42-17.22v-137.35l20.62-19.65c-3.24-2.08-6.35-4.33-9.32-6.74l-11.3,10.77Z"/><path class="b" d="m465.92,390.23V114.49h-101.44v-56.15h271.37v56.15h-101.16v275.75h-68.76Z"/><path class="b" d="m716.83,390.23h-65.64v-240.43h60.81v34.19c10.42-16,19.75-26.64,27.99-31.92,8.24-5.28,17.76-7.92,28.56-7.92,14.96,0,29.27,4,42.91,12l-20.46,55.47c-10.8-6.94-21.03-10.41-30.69-10.41-9.09,0-17.1,2.68-24.01,8.05-6.92,5.36-11.89,15.07-14.92,29.13-3.03,14.05-4.55,39.89-4.55,77.52v74.34Z"/><path class="b" d="m983.37,313.94l65.07,10.64c-8.73,24.15-22.29,42.07-40.69,53.77-18.4,11.7-40.78,17.55-67.14,17.55-36.61,0-64.87-9.75-84.78-29.26-23.52-22.68-35.28-54.43-35.28-95.25s11.84-72.42,35.52-96.62c20.08-20.41,46.03-30.62,77.86-30.62,35.42,0,63.18,10.43,83.26,31.29,23.11,23.88,34.67,59.11,34.67,105.67l-.28,7.25h-163.96c.38,19.09,5.75,33.86,16.1,44.32s22.85,15.68,37.48,15.68c21.09,0,35.15-11.47,42.18-34.41Zm3.41-64.52c-.57-18.79-5.59-32.92-15.06-42.39-9.47-9.47-20.74-14.21-33.81-14.21-13.83,0-25.48,4.93-34.95,14.78-9.66,10-14.4,23.94-14.21,41.82h98.03Z"/><path class="b" d="m1248.76,313.94l65.07,10.64c-8.73,24.15-22.29,42.07-40.69,53.77-18.4,11.7-40.78,17.55-67.14,17.55-36.61,0-64.87-9.75-84.78-29.26-23.52-22.68-35.28-54.43-35.28-95.25s11.84-72.42,35.52-96.62c20.08-20.41,46.03-30.62,77.86-30.62,35.42,0,63.18,10.43,83.26,31.29,23.11,23.88,34.67,59.11,34.67,105.67l-.28,7.25h-163.96c.38,19.09,5.75,33.86,16.1,44.32s22.85,15.68,37.48,15.68c21.09,0,35.15-11.47,42.18-34.41Zm3.41-64.52c-.57-18.79-5.59-32.92-15.06-42.39-9.47-9.47-20.74-14.21-33.81-14.21-13.83,0-25.48,4.93-34.95,14.78-9.66,10-14.4,23.94-14.21,41.82h98.03Z"/><path class="b" d="m466.7,503.81v-90.51h32.42c12.08,0,19.98.43,23.69,1.3,5.93,1.4,10.82,4.38,14.67,8.95,3.85,4.57,5.78,10.46,5.78,17.66,0,6.54-1.66,12.03-4.99,16.45-3.33,4.42-7.48,7.53-12.47,9.32-4.99,1.79-13.58,2.69-25.77,2.69h-13.22v34.14h-20.12Zm20.12-75.2v25.75h11.17c7.5,0,12.6-.39,15.29-1.18,2.69-.78,4.9-2.2,6.62-4.24,1.72-2.04,2.58-4.55,2.58-7.52s-.89-5.55-2.67-7.61c-1.78-2.06-3.97-3.45-6.58-4.15-2.61-.7-8.14-1.05-16.58-1.05h-9.83Z"/><path class="b" d="m578.84,413.29v33.22c3.05-3.29,6.41-5.75,10.1-7.38s7.69-2.44,12.01-2.44c5.76,0,10.58,1.13,14.46,3.4,3.88,2.27,6.65,5.48,8.31,9.64,1.22,3.05,1.83,8.24,1.83,15.57v38.5h-19.2v-34.68c0-8.04-.69-13.06-2.07-15.08-1.93-2.72-5.22-4.08-9.86-4.08-4.92,0-8.74,1.47-11.48,4.42s-4.1,8.46-4.1,16.53v32.88h-19.2v-90.51h19.2Z"/><path class="b" d="m640.52,470.09c0-6.43,1.72-12.29,5.15-17.57,3.44-5.28,7.92-9.24,13.47-11.88,5.54-2.64,11.78-3.96,18.7-3.96,11.64,0,20.78,3.39,27.43,10.17,6.65,6.78,9.98,14.71,9.98,23.78,0,6.76-1.73,12.87-5.2,18.31-3.46,5.44-8.01,9.54-13.63,12.28-5.63,2.74-11.79,4.11-18.5,4.11-10.75,0-19.67-3.05-26.77-9.15-7.09-6.1-10.64-14.8-10.64-26.1Zm19.62.93c0,6.65,1.75,11.67,5.25,15.08s7.72,5.11,12.67,5.11,8.97-1.71,12.41-5.14c3.45-3.43,5.17-8.48,5.17-15.17s-1.75-11.5-5.25-14.93-7.69-5.14-12.58-5.14-8.99,1.71-12.46,5.14-5.21,8.44-5.21,15.05Z"/><path class="b" d="m763.38,438.23v13.83h-13.05v26.47c0,5.73.19,9.05.58,9.96.78,1.65,2.35,2.47,4.74,2.47,1.77,0,4.32-.56,7.65-1.67l1.66,13.46c-4.43,1.73-9.45,2.59-15.05,2.59-4.88,0-8.78-.87-11.72-2.6s-4.9-4.22-5.9-7.48c-.78-2.39-1.16-7.25-1.16-14.59v-28.62h-8.81v-13.83h8.81v-13.03l19.2-10.13v23.15h13.05Z"/><path class="b" d="m772.28,470.09c0-6.43,1.72-12.29,5.15-17.57,3.44-5.28,7.92-9.24,13.47-11.88,5.54-2.64,11.78-3.96,18.7-3.96,11.64,0,20.78,3.39,27.43,10.17,6.65,6.78,9.98,14.71,9.98,23.78,0,6.76-1.73,12.87-5.2,18.31-3.46,5.44-8.01,9.54-13.63,12.28-5.63,2.74-11.79,4.11-18.5,4.11-10.75,0-19.67-3.05-26.77-9.15-7.09-6.1-10.64-14.8-10.64-26.1Zm19.62.93c0,6.65,1.75,11.67,5.25,15.08s7.72,5.11,12.67,5.11,8.97-1.71,12.41-5.14c3.45-3.43,5.17-8.48,5.17-15.17s-1.75-11.5-5.25-14.93-7.69-5.14-12.58-5.14-8.99,1.71-12.46,5.14-5.21,8.44-5.21,15.05Z"/><path class="b" d="m860.23,508.13l21.95,2.41c.33,2.39,1.34,4.08,3.03,5.09s4.36,1.51,8.02,1.51c4.21,0,7.62-.51,10.22-1.54,1.83-.74,3.24-1.98,4.24-3.71,1-1.73,1.5-4.78,1.5-9.14v-9.57c-2.88,3.54-6.12,6.2-9.73,7.96-3.6,1.77-7.59,2.66-11.97,2.66-8.04,0-14.8-2.7-20.28-8.1-6.32-6.18-9.48-14.54-9.48-25.09,0-11.21,2.98-19.66,8.94-25.37,5.96-5.71,13.18-8.56,21.65-8.56,4.49,0,8.58.89,12.26,2.69,3.68,1.79,6.97,4.48,9.85,8.06v-9.2h17.96v58.84c0,9.42-1.16,16.26-3.49,20.5-2.33,4.24-5.92,7.44-10.76,9.6-4.85,2.16-11.57,3.24-20.16,3.24-7.93,0-14.27-.78-19.04-2.35-4.77-1.56-8.41-3.9-10.93-7.01-2.52-3.11-3.78-6.7-3.78-10.77v-2.16Zm17.12-38.5c0,7.01,1.51,12.12,4.53,15.33s6.66,4.82,10.93,4.82c4.6,0,8.53-1.63,11.8-4.88,3.27-3.26,4.91-8.2,4.91-14.84s-1.57-11.9-4.7-15.18c-3.13-3.28-7-4.92-11.6-4.92s-8.33,1.61-11.35,4.82c-3.02,3.22-4.53,8.16-4.53,14.84Z"/><path class="b" d="m965.72,503.81h-19.2v-65.57h17.79v9.32c3.05-4.36,5.78-7.26,8.19-8.71,2.41-1.44,5.2-2.16,8.35-2.16,4.38,0,8.56,1.09,12.55,3.27l-5.98,15.13c-3.16-1.89-6.15-2.84-8.98-2.84-2.66,0-5,.73-7.02,2.19-2.02,1.46-3.48,4.11-4.36,7.94-.89,3.83-1.33,10.88-1.33,21.14v20.28Z"/><path class="b" d="m1015.93,458.18l-17.37-2.84c2.11-6.63,5.58-11.39,10.43-14.29,4.85-2.9,11.82-4.35,20.91-4.35,8.09,0,14.27.84,18.54,2.53,4.27,1.69,7.31,3.99,9.14,6.89,1.83,2.91,2.74,8.19,2.74,15.85l-.17,20.27c0,5.69.3,9.92.91,12.7.61,2.78,1.75,5.74,3.41,8.87h-18.95l-2.49-7.16c-3.27,2.88-6.78,5.05-10.52,6.51-3.74,1.46-7.72,2.19-11.93,2.19-7.04,0-12.8-1.76-17.29-5.29-4.49-3.52-6.73-8.21-6.73-14.07,0-3.71.92-6.95,2.74-9.71,1.83-2.76,4.41-4.97,7.73-6.62s8.64-3.11,15.96-4.39c8.87-1.52,15.05-2.95,18.54-4.27,0-3.64-.35-6.03-1.04-7.17-.69-1.14-1.97-2.07-3.82-2.79-1.86-.72-4.48-1.09-7.86-1.09s-6.14.58-8.11,1.73c-1.97,1.15-3.56,3.31-4.78,6.48Zm25.6,14.14c-2.44.74-6.23,1.61-11.39,2.6-5.93,1.16-9.81,2.44-11.64,3.84-1.83,1.4-2.74,3.22-2.74,5.45,0,2.52,1.01,4.63,3.03,6.35,2.02,1.71,4.56,2.57,7.61,2.57,2.71,0,5.4-.69,8.06-2.07,2.66-1.38,4.5-3.02,5.53-4.92,1.02-1.9,1.54-5.35,1.54-10.34v-3.47Z"/><path class="b" d="m1078.69,438.23h17.79v9.63c2.44-3.46,5.66-6.18,9.66-8.18,4-2,8.3-2.99,12.91-2.99,8.27,0,15.39,2.93,21.36,8.78,5.97,5.86,8.95,14.16,8.95,24.93,0,11.3-2.99,19.95-8.98,25.95-5.99,6-13.11,9-21.36,9-3.82,0-7.38-.69-10.68-2.07-3.3-1.38-6.77-3.88-10.43-7.5v32.97h-19.2v-90.51Zm18.94,31.67c0,7.43,1.62,12.9,4.85,16.41,3.23,3.51,7.15,5.26,11.74,5.26s8.05-1.62,11.03-4.86c2.99-3.24,4.48-8.54,4.48-15.88s-1.54-12.13-4.6-15.45c-3.07-3.32-6.82-4.99-11.24-4.99-4.65,0-8.52,1.62-11.61,4.86-3.1,3.24-4.64,8.12-4.64,14.65Z"/><path class="b" d="m1183.68,413.29v33.22c3.05-3.29,6.41-5.75,10.1-7.38s7.69-2.44,12.01-2.44c5.76,0,10.58,1.13,14.46,3.4,3.88,2.27,6.65,5.48,8.31,9.64,1.22,3.05,1.83,8.24,1.83,15.57v38.5h-19.2v-34.68c0-8.04-.69-13.06-2.07-15.08-1.93-2.72-5.22-4.08-9.86-4.08-4.92,0-8.74,1.47-11.48,4.42s-4.1,8.46-4.1,16.53v32.88h-19.2v-90.51h19.2Z"/><path class="b" d="m1240.7,438.23h20.45l17.24,46.57,16.92-46.57h19.87l-25.53,63.1-4.91,12.29c-2.17,4.61-4.32,7.98-6.45,10.12-2.14,2.14-4.86,3.79-8.16,4.94-3.3,1.15-7.37,1.73-12.2,1.73-3.72,0-7.36-.35-10.91-1.05l-1.66-13.58c2.99.54,5.68.8,8.07.8,3.66,0,6.67-.9,9.02-2.71s4.29-5.09,5.8-9.86l-27.54-65.78Z"/></svg>